<svg width="200" height="82" viewBox="0 0 200 82" fill="none" xmlns="http://www.w3.org/2000/svg">
<g clip-path="url(#clip0_210_5179)">
<path d="M39.2647 31.9555C39.4772 31.3857 39.8049 31.1029 40.2432 31.1029H55.9479L57.44 25.8328H38.3349C37.3096 25.8891 36.3372 26.3053 35.5898 27.0078C34.636 27.8026 33.8925 28.819 33.4247 29.9676L27.6113 43.8697C27.0003 45.2966 26.8541 46.5247 27.1375 47.5363C27.2192 47.9909 27.4655 48.3996 27.8296 48.6847C28.1938 48.9698 28.6503 49.1114 29.1122 49.0825H51.2104L52.76 43.1099H35.6208C35.1426 43.1099 35.0319 42.7698 35.2843 42.1027L39.2647 31.9555Z" fill="#56536A"/>
<path d="M84.2003 27.008C83.9757 26.6447 83.6608 26.3456 83.286 26.1396C82.9113 25.9337 82.4896 25.8281 82.0618 25.8329H60.6189L54.894 49.0826H62.2527L63.8511 41.2414C65.4755 41.241 67.0772 41.6223 68.5264 42.3545C69.9756 43.0866 71.2316 44.1491 72.1927 45.4558L74.8492 49.0826H83.0226C83.0226 49.0826 80.2465 44.1482 76.8239 41.2414H80.273C81.3932 41.2414 82.1061 40.7997 82.8632 39.872C83.6211 38.945 84.0768 37.809 84.1693 36.6162L84.8423 29.9899C84.9971 28.9511 84.769 27.8917 84.2003 27.008ZM78.0725 31.9557L77.4748 35.3263C77.3907 35.9227 77.125 36.2098 76.6778 36.2098H64.9048L66.0383 31.0943H77.5501C77.9707 31.1031 78.1522 31.3858 78.0725 31.9557Z" fill="#56536A"/>
<path d="M138.297 43.8701L137.088 38.971C136.801 37.7235 136.178 36.5779 135.286 35.6578C134.95 35.2639 134.537 34.943 134.071 34.715C133.606 34.487 133.099 34.3569 132.581 34.3325H119.789C119.347 34.3325 119.072 34.0366 118.992 33.449L118.802 31.9647C118.722 31.3948 118.904 31.1121 119.338 31.1121H131.292C133.196 31.1121 134.418 28.1965 133.949 26.35L133.825 25.842H114.746C114.319 25.8371 113.897 25.9428 113.522 26.1487C113.147 26.3546 112.832 26.6537 112.608 27.017C112.045 27.8948 111.815 28.9448 111.961 29.9768L112.404 34.3414C112.499 35.5389 112.963 36.6778 113.732 37.6015C114.032 38.0125 114.422 38.3496 114.873 38.587C115.323 38.8244 115.822 38.9557 116.331 38.971H129.499C129.942 38.971 130.256 39.2891 130.385 39.9296L130.982 42.8717C131.12 43.5432 130.951 43.8789 130.473 43.8789H119.28C118.434 43.8785 117.603 44.1035 116.873 44.5306C116.143 44.9577 115.54 45.5715 115.127 46.3086L113.564 49.0917H135.919C136.408 49.1012 136.887 48.957 137.289 48.6795C137.692 48.402 137.996 48.0052 138.159 47.5455C138.622 46.3714 138.67 45.0753 138.297 43.8701Z" fill="#56536A"/>
<path d="M159.731 25.8328H153.364L156.552 34.3322H146.045L143.388 25.8328H137.035L143.264 49.0825H150.627L147.484 38.9706H158.287L162.086 49.0913H169.449L159.731 25.8328Z" fill="#56536A"/>
<path d="M110.757 41.94C110.498 41.6117 110.201 41.3151 109.872 41.0565L108.216 39.687C111.47 23.5894 98.5769 16.1944 98.2182 16C97.8552 16.1944 84.962 23.5894 88.2119 39.665L86.5559 41.0344C86.226 41.2921 85.9287 41.5888 85.6704 41.9179C82.9297 45.5801 86.9588 49.9402 86.9588 49.9402C86.9588 49.9402 92.3118 45.0809 98.2138 45.0809C104.111 45.0809 109.464 49.9402 109.464 49.9402C109.464 49.9402 113.498 45.5978 110.757 41.94ZM102.345 37.8184C102.345 37.8184 99.9229 37.01 98.2049 37.0056C96.4826 37.0056 94.0607 37.8184 94.0607 37.8184C92.8785 29.2792 97.9968 24.9323 98.2049 24.7468C98.4219 24.9323 103.54 29.2792 102.358 37.8184H102.345Z" fill="#56536A"/>
<path d="M100.56 50.5237C100.56 50.5237 99.325 54.2875 98.227 56.6862C97.1245 54.2875 95.8892 50.5237 95.8892 50.5237C94.2655 50.9766 92.7794 51.8234 91.5635 52.9887C93.4245 58.7588 95.6502 64.4055 98.227 69.8948C100.796 64.4002 103.014 58.7492 104.868 52.9754C103.656 51.8175 102.176 50.9754 100.56 50.5237Z" fill="#56536A"/>
<path d="M159.961 58.2891H151.168C150.74 58.2795 150.329 58.1235 150.003 57.8474C149.654 57.5891 149.397 57.2249 149.273 56.8092L148.02 52.533C147.96 52.3695 147.939 52.194 147.961 52.0211C147.983 51.8482 148.045 51.683 148.144 51.5391C148.248 51.4057 148.383 51.2995 148.537 51.2295C148.691 51.1595 148.86 51.1278 149.029 51.1371H157.565L158.008 52.533H151.168C150.976 52.533 150.909 52.6258 150.968 52.8113L152.097 56.5221C152.117 56.6069 152.166 56.6822 152.236 56.7347C152.305 56.7872 152.391 56.8136 152.478 56.8092H156.56L156.091 55.3647H153.187L152.744 53.9422H158.5L159.961 58.2891Z" fill="#56536A"/>
<path d="M173 58.2899H164.207C163.774 58.2776 163.356 58.1222 163.021 57.8481C162.661 57.5897 162.389 57.2274 162.241 56.81L160.785 52.5338C160.715 52.3746 160.685 52.2007 160.698 52.0274C160.711 51.8541 160.767 51.6866 160.86 51.5398C160.96 51.4019 161.094 51.2923 161.249 51.2218C161.405 51.1514 161.575 51.1224 161.745 51.1378H170.282L170.813 52.5338H163.933C163.742 52.5338 163.68 52.6265 163.742 52.8121L165.071 56.5228C165.094 56.6079 165.146 56.6825 165.218 56.7346C165.289 56.7867 165.376 56.8132 165.465 56.81H169.547L169.011 55.3654H166.111L165.584 53.9607H171.34L173 58.2899Z" fill="#56536A"/>
</g>
<defs>
<clipPath id="clip0_210_5179">
<rect width="146" height="53.9077" fill="white" transform="translate(27 16)"/>
</clipPath>
</defs>
</svg>
