<svg width="200" height="82" viewBox="0 0 200 82" fill="none" xmlns="http://www.w3.org/2000/svg">
<path d="M20 40.8463L24.1538 45.0001C26.0879 44.2645 27.9434 43.3368 29.6923 42.2309C36.92 37.3848 38 30.7664 38 27.0003C34.9575 26.9815 31.9608 27.7413 29.2949 29.2075C26.629 30.6737 24.3826 32.7976 22.7692 35.3772C21.6646 37.1025 20.7368 38.9348 20 40.8463Z" fill="#56536A"/>
<path d="M29.6923 42.2309C27.9434 43.3368 26.0879 44.2645 24.1538 45.0001V51.9231C24.1538 51.9231 28.3492 51.1616 29.6923 49.1539C31.1877 46.9109 29.6923 42.2309 29.6923 42.2309Z" fill="#56536A"/>
<path d="M13.7692 47.077C11.6923 48.8216 11 54 11 54C11 54 16.1785 53.3077 17.9231 51.2308C18.9062 50.0677 18.8923 48.2816 17.7985 47.2016C17.2603 46.688 16.5513 46.3911 15.8077 46.3681C15.0641 46.3451 14.3381 46.5976 13.7692 47.077Z" fill="#56536A"/>
<path d="M20 40.8463C20.7368 38.9348 21.6646 37.1025 22.7692 35.3772C22.7692 35.3772 18.0892 33.8126 15.8462 35.3079C13.8385 36.651 13.0769 40.8463 13.0769 40.8463H20Z" fill="#56536A"/>
<path d="M49.988 31.05V47.223H59.3435V50.355H46.4375V31.05H49.988Z" fill="#56536A"/>
<path d="M61.0903 40.7902C61.0903 39.9127 61.2523 39.1207 61.5763 38.4142C61.9003 37.7077 62.3615 37.107 62.96 36.612C63.563 36.1125 64.2943 35.73 65.1538 35.4645C66.0178 35.199 66.9853 35.0662 68.0563 35.0662C69.1768 35.0662 70.178 35.2125 71.06 35.505C71.9465 35.7975 72.6958 36.2205 73.3078 36.774C73.9243 37.3275 74.3945 38.0047 74.7185 38.8057C75.0425 39.6067 75.2045 40.5135 75.2045 41.526V50.355H71.816V46.4535C71.6405 47.1195 71.375 47.7202 71.0195 48.2557C70.6685 48.7867 70.2388 49.239 69.7303 49.6125C69.2218 49.9815 68.6435 50.265 67.9955 50.463C67.352 50.661 66.6523 50.76 65.8963 50.76C65.1088 50.76 64.391 50.652 63.743 50.436C63.0995 50.2245 62.5483 49.9252 62.0893 49.5382C61.6303 49.1512 61.2748 48.6855 61.0228 48.141C60.7753 47.592 60.6515 46.9845 60.6515 46.3185C60.6515 45.6255 60.7888 45.0045 61.0633 44.4555C61.3378 43.9065 61.7315 43.4408 62.2445 43.0582C62.762 42.6757 63.392 42.3833 64.1345 42.1807C64.877 41.9738 65.714 41.8702 66.6455 41.8702H71.816V41.526C71.816 40.9635 71.7283 40.4595 71.5528 40.014C71.3773 39.564 71.123 39.1815 70.79 38.8665C70.4615 38.5515 70.061 38.3107 69.5885 38.1442C69.116 37.9777 68.5828 37.8945 67.9888 37.8945C67.3858 37.8945 66.8615 37.9642 66.416 38.1037C65.975 38.2387 65.6105 38.4323 65.3225 38.6842C65.0345 38.9362 64.8208 39.24 64.6813 39.5955C64.5418 39.951 64.472 40.3492 64.472 40.7902H61.0903ZM66.8413 44.2463C65.9143 44.2463 65.2123 44.4015 64.7353 44.712C64.2628 45.0225 64.0265 45.4815 64.0265 46.089C64.0265 46.728 64.2853 47.2185 64.8028 47.5605C65.3248 47.898 66.0763 48.0667 67.0573 48.0667C67.7503 48.0667 68.387 47.9835 68.9675 47.817C69.5525 47.646 70.0543 47.4097 70.4728 47.1082C70.8958 46.8068 71.2243 46.449 71.4583 46.035C71.6968 45.6165 71.816 45.162 71.816 44.6715V44.2463H66.8413Z" fill="#56536A"/>
<path d="M87.5773 35.4712H90.9658V50.355H87.5773V45.9675C87.4108 46.728 87.1655 47.4053 86.8415 47.9993C86.522 48.5933 86.1328 49.095 85.6738 49.5045C85.2193 49.914 84.6995 50.2245 84.1145 50.436C83.5295 50.652 82.8905 50.76 82.1975 50.76C81.374 50.76 80.6405 50.6093 79.997 50.3078C79.358 50.0018 78.8158 49.5585 78.3703 48.978C77.9293 48.3975 77.594 47.6865 77.3645 46.845C77.135 45.999 77.0203 45.036 77.0203 43.956V35.4712H80.4088V43.6185C80.4088 46.3815 81.527 47.763 83.7635 47.763C84.3665 47.763 84.9043 47.6663 85.3768 47.4727C85.8493 47.2792 86.2475 46.998 86.5715 46.629C86.9 46.2555 87.1498 45.7987 87.3208 45.2587C87.4918 44.7142 87.5773 44.0955 87.5773 43.4025V35.4712Z" fill="#56536A"/>
<path d="M96.2966 50.355H92.9081V35.4712H96.2966V39.8587C96.4676 39.0982 96.7128 38.421 97.0323 37.827C97.3518 37.233 97.7388 36.7313 98.1933 36.3218C98.6523 35.9123 99.1743 35.6017 99.7593 35.3903C100.344 35.1742 100.983 35.0662 101.676 35.0662C102.5 35.0662 103.231 35.2192 103.87 35.5252C104.514 35.8267 105.056 36.2677 105.497 36.8482C105.942 37.4287 106.28 38.142 106.509 38.988C106.739 39.8295 106.854 40.7902 106.854 41.8702V50.355H103.465V42.2078C103.465 39.4447 102.347 38.0632 100.11 38.0632C99.5118 38.0632 98.9763 38.16 98.5038 38.3535C98.0313 38.547 97.6308 38.8305 97.3023 39.204C96.9738 39.573 96.7241 40.0275 96.5531 40.5675C96.3821 41.1075 96.2966 41.7262 96.2966 42.4237V50.355Z" fill="#56536A"/>
<path d="M111.806 42.9097C111.806 43.6702 111.899 44.352 112.083 44.955C112.268 45.5535 112.531 46.062 112.873 46.4805C113.219 46.8945 113.64 47.2118 114.135 47.4322C114.635 47.6528 115.197 47.763 115.823 47.763C116.363 47.763 116.837 47.6842 117.247 47.5267C117.661 47.3647 118.016 47.142 118.313 46.8585C118.61 46.575 118.851 46.242 119.036 45.8595C119.225 45.4725 119.362 45.0562 119.447 44.6108H122.829C122.753 45.2002 122.618 45.7605 122.424 46.2915C122.235 46.8225 121.992 47.3175 121.695 47.7765C121.398 48.231 121.049 48.6427 120.649 49.0117C120.248 49.3762 119.801 49.689 119.306 49.95C118.811 50.211 118.271 50.4113 117.686 50.5508C117.105 50.6903 116.482 50.76 115.816 50.76C115.082 50.76 114.389 50.6745 113.737 50.5035C113.089 50.337 112.49 50.094 111.941 49.7745C111.392 49.455 110.897 49.0658 110.456 48.6068C110.02 48.1477 109.649 47.628 109.343 47.0475C109.041 46.4625 108.809 45.8235 108.647 45.1305C108.485 44.4375 108.404 43.6973 108.404 42.9097C108.404 41.7262 108.582 40.653 108.938 39.69C109.298 38.727 109.804 37.9035 110.456 37.2195C111.109 36.531 111.89 36 112.799 35.6265C113.708 35.253 114.713 35.0662 115.816 35.0662C116.815 35.0662 117.719 35.2215 118.529 35.532C119.344 35.838 120.05 36.2655 120.649 36.8145C121.247 37.3635 121.731 38.0137 122.1 38.7652C122.474 39.5122 122.717 40.329 122.829 41.2155H119.447C119.366 40.77 119.231 40.356 119.042 39.9735C118.858 39.5865 118.617 39.2513 118.32 38.9677C118.023 38.6842 117.668 38.4637 117.254 38.3062C116.84 38.1442 116.363 38.0632 115.823 38.0632C115.197 38.0632 114.635 38.1735 114.135 38.394C113.64 38.6145 113.219 38.934 112.873 39.3525C112.531 39.7665 112.268 40.2727 112.083 40.8712C111.899 41.4697 111.806 42.1493 111.806 42.9097Z" fill="#56536A"/>
<path d="M127.832 50.355H124.443V30.375H127.832V39.8587C128.003 39.0982 128.248 38.421 128.567 37.827C128.887 37.233 129.274 36.7313 129.728 36.3218C130.187 35.9123 130.709 35.6017 131.294 35.3903C131.879 35.1742 132.518 35.0662 133.211 35.0662C134.035 35.0662 134.766 35.2192 135.405 35.5252C136.049 35.8267 136.591 36.2677 137.032 36.8482C137.477 37.4287 137.815 38.142 138.044 38.988C138.274 39.8295 138.389 40.7902 138.389 41.8702V50.355H135V42.2078C135 39.4447 133.882 38.0632 131.645 38.0632C131.047 38.0632 130.511 38.16 130.039 38.3535C129.566 38.547 129.166 38.8305 128.837 39.204C128.509 39.573 128.259 40.0275 128.088 40.5675C127.917 41.1075 127.832 41.7262 127.832 42.4237V50.355Z" fill="#56536A"/>
<path d="M148.094 30.645C149.291 30.645 150.371 30.7912 151.334 31.0838C152.297 31.3762 153.118 31.797 153.797 32.346C154.477 32.8905 154.999 33.5565 155.363 34.344C155.732 35.1315 155.917 36.018 155.917 37.0035H152.488C152.488 36.4905 152.38 36.0293 152.164 35.6197C151.952 35.2057 151.651 34.8547 151.259 34.5667C150.872 34.2742 150.407 34.0515 149.862 33.8985C149.318 33.741 148.715 33.6623 148.053 33.6623C147.684 33.6623 147.32 33.687 146.96 33.7365C146.6 33.786 146.255 33.8625 145.927 33.966C145.598 34.0695 145.295 34.2 145.016 34.3575C144.737 34.5105 144.494 34.6927 144.287 34.9043C144.084 35.1112 143.924 35.3475 143.807 35.613C143.695 35.8785 143.639 36.171 143.639 36.4905C143.639 36.927 143.744 37.2802 143.956 37.5502C144.167 37.8202 144.471 38.043 144.867 38.2185C145.268 38.3895 145.758 38.529 146.339 38.637C146.919 38.745 147.576 38.853 148.31 38.961L149.207 39.096C149.747 39.177 150.305 39.2692 150.881 39.3727C151.457 39.4718 152.018 39.6045 152.562 39.771C153.111 39.933 153.629 40.1423 154.115 40.3988C154.605 40.6508 155.033 40.9703 155.397 41.3573C155.766 41.7442 156.056 42.21 156.268 42.7545C156.484 43.299 156.592 43.9448 156.592 44.6918C156.592 45.6998 156.392 46.584 155.991 47.3445C155.591 48.1005 155.026 48.7327 154.297 49.2413C153.572 49.7453 152.702 50.1233 151.685 50.3752C150.668 50.6318 149.54 50.76 148.303 50.76C146.957 50.76 145.758 50.6138 144.705 50.3212C143.657 50.0243 142.77 49.5968 142.046 49.0388C141.321 48.4808 140.768 47.7967 140.385 46.9867C140.007 46.1768 139.818 45.2565 139.818 44.226H143.247C143.247 44.775 143.364 45.2677 143.598 45.7042C143.832 46.1407 144.165 46.5098 144.597 46.8112C145.034 47.1127 145.56 47.3445 146.177 47.5065C146.798 47.664 147.495 47.7428 148.269 47.7428C148.931 47.7428 149.554 47.682 150.139 47.5605C150.724 47.439 151.235 47.2545 151.671 47.007C152.112 46.755 152.459 46.4377 152.711 46.0553C152.967 45.6727 153.095 45.2228 153.095 44.7053C153.095 44.2283 152.99 43.8435 152.778 43.551C152.567 43.2585 152.265 43.0223 151.874 42.8422C151.482 42.6623 151.012 42.5227 150.463 42.4237C149.914 42.3202 149.302 42.219 148.627 42.12L147.493 41.9513C147.088 41.8927 146.672 41.8298 146.244 41.7622C145.817 41.6947 145.391 41.6137 144.968 41.5192C144.55 41.4248 144.14 41.3145 143.74 41.1885C143.339 41.058 142.959 40.9005 142.599 40.716C142.244 40.5315 141.915 40.3155 141.614 40.068C141.312 39.8205 141.051 39.5325 140.831 39.204C140.615 38.871 140.446 38.4952 140.324 38.0767C140.203 37.6537 140.142 37.1767 140.142 36.6457C140.142 35.9887 140.237 35.3857 140.426 34.8368C140.615 34.2832 140.88 33.7837 141.222 33.3382C141.564 32.8927 141.976 32.5035 142.457 32.1705C142.943 31.833 143.479 31.5517 144.064 31.3267C144.653 31.1017 145.288 30.933 145.967 30.8205C146.647 30.7035 147.356 30.645 148.094 30.645Z" fill="#56536A"/>
<path d="M161.53 33.831H158.034V30.375H161.53V33.831ZM161.476 50.355H158.088V35.4712H161.476V50.355Z" fill="#56536A"/>
<path d="M173.074 50.2402C171.872 50.5823 170.803 50.7533 169.867 50.7533C168.306 50.7533 167.118 50.2875 166.303 49.356C165.489 48.4245 165.082 47.0475 165.082 45.225V38.2252H163.138V35.4712H165.082V32.0422H168.47V35.4712H173.074V38.2252H168.47V45.2317C168.47 46.1543 168.641 46.8315 168.983 47.2635C169.325 47.6955 169.867 47.9115 170.61 47.9115C170.907 47.9115 171.256 47.88 171.656 47.817C172.057 47.7495 172.529 47.6437 173.074 47.4998V50.2402Z" fill="#56536A"/>
<path d="M188.279 45.3667C188.081 46.2083 187.772 46.962 187.354 47.628C186.935 48.294 186.425 48.8587 185.822 49.3223C185.219 49.7857 184.535 50.1413 183.77 50.3888C183.005 50.6363 182.179 50.76 181.292 50.76C180.554 50.76 179.857 50.6745 179.2 50.5035C178.547 50.3325 177.947 50.0873 177.398 49.7678C176.849 49.4438 176.356 49.0522 175.919 48.5933C175.483 48.1298 175.114 47.6077 174.812 47.0273C174.511 46.4422 174.279 45.8033 174.117 45.1103C173.955 44.4173 173.874 43.6792 173.874 42.8962C173.874 41.7262 174.05 40.6597 174.401 39.6967C174.756 38.7337 175.256 37.9102 175.899 37.2262C176.543 36.5377 177.314 36.0068 178.214 35.6333C179.114 35.2552 180.113 35.0662 181.211 35.0662C182.291 35.0662 183.27 35.2507 184.148 35.6197C185.03 35.9887 185.781 36.513 186.402 37.1925C187.023 37.8675 187.502 38.6865 187.84 39.6495C188.177 40.608 188.346 41.679 188.346 42.8625C188.346 43.038 188.342 43.2135 188.333 43.389C188.328 43.5645 188.315 43.749 188.292 43.9425H177.222C177.294 44.5635 177.44 45.1192 177.661 45.6097C177.886 46.0957 178.176 46.5098 178.532 46.8517C178.887 47.1938 179.303 47.4548 179.78 47.6348C180.262 47.8147 180.795 47.9048 181.38 47.9048C182.271 47.9048 183.016 47.6933 183.614 47.2703C184.213 46.8472 184.679 46.2127 185.012 45.3667H188.279ZM184.991 41.5125C184.811 40.329 184.402 39.4312 183.763 38.8192C183.128 38.2027 182.282 37.8945 181.225 37.8945C180.685 37.8945 180.192 37.9755 179.747 38.1375C179.301 38.2995 178.91 38.5358 178.572 38.8462C178.239 39.1567 177.962 39.537 177.742 39.987C177.521 40.4325 177.364 40.941 177.269 41.5125H184.991Z" fill="#56536A"/>
</svg>
