<svg width="145" height="23" viewBox="0 0 145 23" fill="none" xmlns="http://www.w3.org/2000/svg">
<path d="M44.0553 7.77769H40.1577V16.8088H36.1203V7.77769H32.2227V4.84131H44.0553V7.77769Z" fill="white"/>
<path d="M56.6715 7.77769H49.5056V9.34832H55.92V12.2847H49.5056V13.8724H56.6715V16.8088H45.4507V4.84131H56.6715V7.77769Z" fill="white"/>
<path d="M70.1939 7.77769H62.3113C62.2414 7.77769 62.1774 7.80615 62.1191 7.86305C62.0608 7.90858 62.0317 7.97118 62.0317 8.05085V9.07516C62.0317 9.15483 62.0608 9.22312 62.1191 9.28003C62.1774 9.32555 62.2414 9.34832 62.3113 9.34832H67.747C68.5161 9.34832 69.1161 9.57025 69.5473 10.0141C69.9784 10.458 70.1939 11.0214 70.1939 11.7043V14.4699C70.1939 15.1414 69.9784 15.6991 69.5473 16.143C69.1161 16.5868 68.5161 16.8088 67.747 16.8088H58.0642V13.8724H65.9468C66.0167 13.8724 66.0808 13.8496 66.139 13.8041C66.1973 13.7472 66.2264 13.6732 66.2264 13.5822V12.5749C66.2264 12.4953 66.1973 12.427 66.139 12.3701C66.0808 12.3132 66.0167 12.2847 65.9468 12.2847H60.5111C59.7421 12.2847 59.142 12.0628 58.7109 11.6189C58.2798 11.175 58.0642 10.6173 58.0642 9.94584V7.18017C58.0642 6.50867 58.2798 5.95099 58.7109 5.50712C59.142 5.06324 59.7421 4.84131 60.5111 4.84131H70.1939V7.77769Z" fill="white"/>
<path d="M83.432 7.77769H79.5344V16.8088H75.497V7.77769H71.5994V4.84131H83.432V7.77769Z" fill="white"/>
<path d="M97.2999 16.0405C96.8222 16.5527 96.0997 16.8088 95.1326 16.8088H87.2675C86.312 16.8088 85.5896 16.5584 85.1002 16.0576C84.6225 15.5455 84.3836 14.8683 84.3836 14.026V7.62405C84.3836 6.77045 84.6225 6.09326 85.1002 5.59248C85.5896 5.0917 86.312 4.84131 87.2675 4.84131H95.1326C96.0997 4.84131 96.8222 5.0917 97.2999 5.59248C97.7776 6.09326 98.0165 6.77045 98.0165 7.62405V14.026C98.0165 14.8683 97.7776 15.5398 97.2999 16.0405ZM88.2812 8.20449V13.4456C88.2812 13.5708 88.322 13.6732 88.4036 13.7529C88.4852 13.8326 88.59 13.8724 88.7182 13.8724H93.6994C93.8159 13.8724 93.915 13.8326 93.9966 13.7529C94.0781 13.6732 94.1189 13.5708 94.1189 13.4456V8.20449C94.1189 8.0793 94.0781 7.97687 93.9966 7.8972C93.915 7.81753 93.8159 7.77769 93.6994 7.77769H88.7182C88.59 7.77769 88.4852 7.81753 88.4036 7.8972C88.322 7.97687 88.2812 8.0793 88.2812 8.20449Z" fill="white"/>
<path d="M112.46 10.2361C112.46 10.6344 112.372 10.9815 112.197 11.2775C112.034 11.5734 111.772 11.801 111.411 11.9603C111.807 12.1083 112.081 12.3359 112.232 12.6432C112.384 12.9391 112.46 13.3033 112.46 13.7358V16.8088H108.789V14.026C108.789 13.8326 108.713 13.6675 108.562 13.531C108.422 13.383 108.253 13.309 108.055 13.309H103.388V16.8088H99.4209V4.84131H109.715C110.578 4.84131 111.248 5.05755 111.725 5.49004C112.215 5.92253 112.46 6.53713 112.46 7.33382V10.2361ZM103.388 7.77769V10.3726H108.055C108.253 10.3726 108.422 10.3044 108.562 10.1678C108.713 10.0198 108.789 9.84909 108.789 9.65561V8.20449C108.789 8.05653 108.713 7.94841 108.562 7.88012C108.422 7.81184 108.253 7.77769 108.055 7.77769H103.388Z" fill="white"/>
<path d="M114.21 4.84131H118.475V16.8088H114.21V4.84131Z" fill="white"/>
<path d="M132.374 9.16052L124.526 13.8724H132.374V16.8088H120.244V12.4896L128.092 7.77769H120.244V4.84131H132.374V9.16052Z" fill="white"/>
<path d="M145 7.77769H137.834V9.34832H144.249V12.2847H137.834V13.8724H145V16.8088H133.78V4.84131H145V7.77769Z" fill="white"/>
<path d="M0.027185 0.130439H8.55123L8.6056 7.40387L0 7.37323L0.027185 0.130439Z" fill="white"/>
<path d="M16.2245 0.033983L27.265 -0.000488281L21.3078 7.85896L16.3177 7.92024L16.2982 13.5161L8.51204 22.9995L8.65961 7.46063L16.2245 0.033983Z" fill="white"/>
</svg>
